<?xml version="1.0" encoding="UTF-8"?><svg id="a" xmlns="http://www.w3.org/2000/svg" xmlns:xlink="http://www.w3.org/1999/xlink" viewBox="0 0 504 144"><defs><style>.e{fill:url(#d);}.e,.f,.g{stroke:#202124;stroke-miterlimit:10;stroke-width:4.24px;}.f{fill:url(#b);}.g{fill:url(#c);}.h{fill:#202124;}</style><linearGradient id="b" x1="69.22" y1="67.71" x2="78.25" y2="104.74" gradientTransform="matrix(1, 0, 0, 1, 0, 0)" gradientUnits="userSpaceOnUse"><stop offset="0" stop-color="#3950a0"/><stop offset="1" stop-color="#333e83"/></linearGradient><linearGradient id="c" x1="92.68" y1="108.82" x2="125.46" y2="71.09" gradientTransform="matrix(1, 0, 0, 1, 0, 0)" gradientUnits="userSpaceOnUse"><stop offset="0" stop-color="#9a382d"/><stop offset=".46" stop-color="#b5332e"/><stop offset=".97" stop-color="#ce4d42"/></linearGradient><linearGradient id="d" x1="76.69" y1="29.75" x2="57.88" y2="43.85" gradientTransform="matrix(1, 0, 0, 1, 0, 0)" gradientUnits="userSpaceOnUse"><stop offset="0" stop-color="#fee715"/><stop offset="1" stop-color="#ffb000"/></linearGradient></defs><g><polygon class="f" points="91.23 124.1 72.88 122.76 53.12 47.91 76.74 52.38 91.23 124.1"/><polygon class="g" points="110.02 122.31 98.5 117.13 91.02 77.29 141 73.93 110.02 122.31"/><polygon class="e" points="76.63 44.77 53.12 40.26 59.28 27.82 72.18 19.12 76.63 44.77"/></g><g><path class="h" d="M201.26,40.67c.8,0,.88,.08,.88,.8l.08,19.36c2.32-.56,4.96-.88,7.6-.88,14.24,0,23.36,10.08,23.36,23.2,0,18.32-14.32,27.36-29.28,27.36-5.12,0-10.32-.72-15.28-2.24-.4-.08-.72-.56-.72-.96V41.47c0-.64,.32-.8,.8-.8h12.56Zm6,31.36c-2.8,0-4,.4-5.04,.56v25.76c1.04,.16,2.16,.16,3.12,.16,6.88,0,13.2-4.16,13.28-14,0-8.8-4.96-12.48-11.36-12.48Z"/><path class="h" d="M240.25,48.51c0-4.72,3.44-7.92,8-7.92,4.88,0,7.92,3.2,7.92,7.92s-3.2,7.92-8,7.92-7.92-3.12-7.92-7.92Zm.72,13.2c0-.56,.32-.88,.88-.88h12.64c.64,0,.8,.24,.8,.88v46.96c0,.56-.16,.88-.88,.88h-12.4c-.64,0-1.04-.32-1.04-.96V61.71Z"/><path class="h" d="M293.34,107.88c0,.56-.08,1.04-.8,1.28-2.72,.96-5.12,1.36-8.72,1.36-8.64,0-13.68-4.32-13.68-14.16v-23.52h-5.68c-.56-.08-.64-.4-.64-.96v-10.16c0-.56,.08-.88,.8-.88h5.6c.24-3.2,.48-8.88,1.12-11.52,.08-.56,.4-.88,.88-.96l12.08-1.6c.48-.08,.72,0,.72,.64-.24,3.04-.48,8.64-.56,13.44h8.88c.48,0,.72,.24,.72,.8v10.4c0,.64-.24,.72-.72,.8h-8.96v20.16c0,4.08,1.28,5.84,5.2,5.84,1.12,0,2-.08,2.96-.24,.4,0,.8,0,.8,.72v8.56Z"/><path class="h" d="M316.25,40.67c.8,0,.88,.08,.88,.8l.08,19.36c2.32-.56,4.96-.88,7.6-.88,14.24,0,23.36,10.08,23.36,23.2,0,18.32-14.32,27.36-29.28,27.36-5.12,0-10.32-.72-15.28-2.24-.4-.08-.72-.56-.72-.96V41.47c0-.64,.32-.8,.8-.8h12.56Zm6,31.36c-2.8,0-4,.4-5.04,.56v25.76c1.04,.16,2.16,.16,3.12,.16,6.88,0,13.2-4.16,13.28-14,0-8.8-4.96-12.48-11.36-12.48Z"/><path class="h" d="M400.02,84.92c0,15.44-9.76,25.6-23.84,25.6-16.56,0-23.84-12.48-23.84-25.28,0-13.84,9.04-25.28,24.08-25.28s23.6,11.84,23.6,24.96Zm-33.36,.16c0,8.32,3.68,13.52,9.76,13.52,5.36,0,9.12-4.8,9.12-13.36,0-7.52-2.88-13.36-9.6-13.36-5.28,0-9.28,4.64-9.28,13.2Z"/><path class="h" d="M432.34,107.88c0,.56-.08,1.04-.8,1.28-2.72,.96-5.12,1.36-8.72,1.36-8.64,0-13.68-4.32-13.68-14.16v-23.52h-5.68c-.56-.08-.64-.4-.64-.96v-10.16c0-.56,.08-.88,.8-.88h5.6c.24-3.2,.48-8.88,1.12-11.52,.08-.56,.4-.88,.88-.96l12.08-1.6c.48-.08,.72,0,.72,.64-.24,3.04-.48,8.64-.56,13.44h8.88c.48,0,.72,.24,.72,.8v10.4c0,.64-.24,.72-.72,.8h-8.96v20.16c0,4.08,1.28,5.84,5.2,5.84,1.12,0,2-.08,2.96-.24,.4,0,.8,0,.8,.72v8.56Z"/></g></svg>